PathFileType  4	(X/Y/Z) C:\Users\antoi\Documents\MyRepositories\mobilecap\ResultsAnalysis
DataRate	CameraRate	NumFrames	NumMarkers	Units	OrigDataRate	OrigDataStartFrame	OrigNumFrames
100.0	100.0	5	51	mm	100.0	170	271
Frame#	Time	r_knee			r_shank_antsup			r_ankle			r_calc			r_5meta			r_toe			L_knee			L_shank_antsup			L_ankle			L_calc			L_5meta			L_toe			r_sh2			r_sh3			r_sh4			L_sh2			L_sh3			r_thigh1			r_thigh2			r_thigh3			r_thigh4			r_thigh5			L_thigh1			L_thigh2			L_thigh3			L_thigh4			r.ASIS			r.PSIS			L.ASIS			L.PSIS			C7			R_Shoulder			L_Shoulder			R_Sternum			L_Sternum			R_humerus			R_elbow_med			R_elbow_lat			R_forearm			R_wrist_radius			R_wrist_ulna			L_humerus			L_elbow_med			L_elbow_lat			L_forearm			L_wrist_radius			L_wrist_ulna			R_HJC			L_HJC			R_HJC_reg			L_HJC_reg			
		X1	Y1	Z1	X2	Y2	Z2	X3	Y3	Z3	X4	Y4	Z4	X5	Y5	Z5	X6	Y6	Z6	X7	Y7	Z7	X8	Y8	Z8	X9	Y9	Z9	X10	Y10	Z10	X11	Y11	Z11	X12	Y12	Z12	X13	Y13	Z13	X14	Y14	Z14	X15	Y15	Z15	X16	Y16	Z16	X17	Y17	Z17	X18	Y18	Z18	X19	Y19	Z19	X20	Y20	Z20	X21	Y21	Z21	X22	Y22	Z22	X23	Y23	Z23	X24	Y24	Z24	X25	Y25	Z25	X26	Y26	Z26	X27	Y27	Z27	X28	Y28	Z28	X29	Y29	Z29	X30	Y30	Z30	X31	Y31	Z31	X32	Y32	Z32	X33	Y33	Z33	X34	Y34	Z34	X35	Y35	Z35	X36	Y36	Z36	X37	Y37	Z37	X38	Y38	Z38	X39	Y39	Z39	X40	Y40	Z40	X41	Y41	Z41	X42	Y42	Z42	X43	Y43	Z43	X44	Y44	Z44	X45	Y45	Z45	X46	Y46	Z46	X47	Y47	Z47	X48	Y48	Z48	X49	Y49	Z49	X50	Y50	Z50	X51	Y51	Z51	

170	1.69000000	-108.66063	423.16784	-427.12294	-69.28341	350.88164	-423.05351	-276.06582	93.29892	-423.43156	-340.80507	65.29052	-468.12213	-182.15412	41.63821	-391.53798	-136.15174	55.22054	-443.45910	-81.24198	416.23651	-787.24166	-56.37823	320.28393	-778.00157	-251.61784	95.77227	-814.15663	-323.74912	58.40547	-775.39845	-163.27181	43.13728	-844.40378	-111.05981	56.44471	-791.28033	-132.93190	257.71989	-412.68431	-126.21549	396.69078	-395.44202	-199.83518	302.76780	-389.91106	-114.50430	373.13717	-821.99319	-174.29469	267.02623	-841.55206	-289.63973	592.14926	-415.14953	-191.40328	539.34634	-413.21966	-243.56612	441.53153	-438.63367	-347.47258	497.33644	-429.05103	-204.83368	470.70199	-411.94410	-288.61200	594.91427	-821.47178	-171.30792	527.35307	-801.89647	-352.69426	501.63095	-814.76499	-232.90642	432.09904	-782.92919	-293.52139	656.26805	-518.53406	-453.05842	772.26599	-598.54349	-290.76606	648.01435	-734.11927	-453.57261	766.35014	-678.46289	-37.13155	993.10104	-633.80436	9.19241	932.44414	-499.19530	11.38930	924.94666	-764.70179	28.97361	870.26038	-605.67680	20.72910	862.52755	-640.23197	-34.55737	866.95926	-404.49404	-235.32994	859.97290	-296.51192	-179.12658	842.65802	-255.16810	-181.03478	744.59893	-243.26288	-232.80247	613.01076	-227.66903	-242.90232	626.25450	-192.22652	-44.25530	879.28764	-856.24329	-258.83570	865.60993	-934.83211	-206.23530	845.03222	-978.73910	-245.01628	740.55280	-995.07327	-317.48164	634.36566	-996.43262	-330.14139	652.65521	-1033.05659	-402.89608	615.37899	-522.23011	-398.32864	607.69911	-729.54376	-383.50131	633.06683	-545.61032	-384.41278	622.55666	-687.62367	
171	1.70000000	-108.29296	423.56494	-427.03262	-68.78463	351.39850	-422.26882	-275.99720	93.56074	-423.58770	-340.59541	65.95918	-468.41695	-182.18726	41.67393	-391.63012	-136.09407	55.25461	-443.42781	-81.06247	416.42653	-787.87375	-56.25161	320.44569	-778.86453	-251.60559	95.71421	-814.44362	-323.67241	58.48169	-775.82588	-163.25820	43.05696	-844.55361	-111.13192	56.44421	-791.37072	-132.72104	258.25284	-412.38895	-126.25512	396.93425	-395.91832	-200.35979	302.85483	-389.75286	-114.44313	373.34883	-822.51016	-174.50444	267.35948	-842.19314	-288.73336	593.32723	-415.31284	-190.58986	540.23086	-413.09550	-242.83196	443.06524	-438.20957	-346.58687	498.89144	-430.09980	-204.63526	471.31295	-412.32558	-287.39650	595.73654	-823.04501	-170.81392	527.45571	-803.13004	-352.15041	502.94268	-815.83248	-233.00916	432.56388	-782.81577	-290.91721	656.01147	-519.35053	-448.92163	774.56971	-599.29885	-289.07558	648.15869	-734.29792	-449.23857	768.53258	-679.40455	-30.35665	987.72964	-635.35032	15.70982	926.73138	-499.69115	17.66552	918.26011	-766.30050	34.72375	864.37279	-606.64577	26.21693	856.52486	-641.80157	-32.07701	863.87530	-404.74412	-234.95175	871.14191	-300.06417	-180.54273	850.97833	-257.61758	-188.44267	753.66168	-244.10381	-247.59544	625.54848	-227.57483	-258.25342	639.71061	-192.65709	-40.35294	875.94471	-857.82489	-255.88396	877.33285	-934.63705	-205.22793	853.67406	-979.42662	-251.07663	752.22799	-996.14811	-330.64727	650.22871	-997.07884	-342.32567	670.21175	-1034.07803	-401.14351	616.98948	-522.86414	-396.77563	609.17449	-730.17696	-381.71612	634.52962	-546.63586	-382.27801	623.86371	-688.19845	
172	1.71000000	-107.67037	423.95072	-426.99191	-68.11750	352.03690	-421.11203	-275.84407	94.07746	-423.72654	-340.38543	66.72586	-468.56151	-182.19022	41.75797	-391.74416	-135.95005	55.25414	-443.41987	-80.85729	416.61743	-788.53330	-56.09503	320.56145	-779.54367	-251.50374	95.76740	-814.85467	-323.61619	58.62909	-776.19771	-163.20303	42.98836	-844.69453	-111.17427	56.42893	-791.48078	-132.40596	258.77624	-412.20786	-126.90529	396.43048	-397.81372	-199.64161	303.15767	-389.63175	-114.34894	373.56532	-823.02740	-174.59842	267.85667	-842.90903	-287.48460	594.55478	-415.26399	-189.48941	541.00100	-413.13507	-242.01601	444.32183	-438.24293	-345.59236	500.46254	-430.77293	-204.27358	471.60196	-413.00188	-285.69034	596.88881	-824.52301	-170.11433	527.59318	-804.09219	-350.98793	504.75474	-817.47232	-232.95217	433.65905	-783.15574	-288.18580	655.33411	-520.60772	-444.81732	776.74181	-599.88066	-286.74186	647.65657	-732.52041	-445.04366	770.77928	-680.23881	-23.88170	982.62625	-636.81139	21.73790	921.34937	-500.21490	23.35020	912.16535	-767.81025	39.84864	858.51865	-607.60498	31.29126	850.83607	-643.39390	-29.92679	861.48837	-404.82592	-233.98749	882.68401	-304.37920	-181.94418	860.09102	-260.14635	-195.55890	763.71294	-245.69372	-261.72074	639.48370	-228.08642	-272.95914	654.44355	-193.89097	-36.84796	873.40068	-859.24510	-252.68728	889.41006	-933.77849	-204.21022	862.82357	-979.43254	-256.39826	764.83064	-996.82228	-341.25305	667.50230	-997.96919	-353.19424	688.67833	-1034.11467	-399.54123	618.50777	-522.99444	-394.90206	610.27453	-730.28609	-379.12035	635.88443	-547.65401	-379.51437	625.52475	-687.22602	
173	1.72000000	-106.79643	424.23758	-427.26170	-67.44554	352.41173	-420.51913	-275.59463	94.72615	-423.79366	-340.17591	67.58853	-468.57848	-182.17175	41.83008	-391.84390	-135.78406	55.22843	-443.39129	-80.45736	416.78464	-789.33115	-55.74700	320.65271	-780.24919	-251.34380	95.90296	-815.22465	-323.62643	58.90017	-776.26895	-163.12610	42.94507	-844.77573	-111.14487	56.35615	-791.53924	-131.95855	259.17548	-412.21857	-127.00904	395.97776	-399.44956	-198.25795	303.90413	-389.62497	-114.02055	373.76024	-823.51399	-174.36339	268.25482	-843.52822	-285.37033	596.53336	-415.20474	-188.07172	541.72540	-413.28483	-241.29567	444.98885	-438.98197	-344.41759	502.00856	-431.09040	-203.35465	472.12501	-413.36498	-283.83328	598.34593	-825.48791	-169.12301	527.99128	-804.72750	-349.69925	506.76261	-818.81919	-232.61284	435.15195	-783.83126	-285.65033	654.68787	-521.55789	-440.79253	778.70386	-600.31703	-284.31948	647.43168	-731.51820	-440.96035	773.05247	-680.95024	-17.75519	978.05092	-637.77255	27.27829	916.42573	-500.73312	28.43372	906.78309	-769.46818	43.34132	851.54587	-607.92683	36.02207	845.52273	-644.99665	-27.99926	859.70926	-405.05653	-232.59796	894.31871	-309.62094	-183.29716	869.64877	-263.18901	-202.23542	774.37377	-247.99652	-274.90908	654.32566	-229.46498	-286.77218	670.20769	-196.14785	-33.69352	871.70045	-860.62456	-249.10187	901.26541	-932.12909	-203.10607	872.19305	-978.71209	-260.89583	777.92305	-997.02510	-349.98376	685.20454	-998.11285	-362.49289	707.38905	-1033.29667	-397.90871	619.80005	-523.38520	-392.94794	611.60015	-730.67288	-376.67456	636.80596	-548.52799	-376.96369	627.10894	-686.84726	
174	1.73000000	-105.71657	424.39331	-427.58078	-66.64720	352.57197	-420.56750	-275.28782	95.33564	-423.73734	-339.89700	68.55734	-468.53966	-182.13366	41.84047	-391.88653	-135.66332	55.20918	-443.33516	-79.64863	416.99833	-790.26666	-55.11891	320.64391	-780.91853	-251.14467	96.07481	-815.41152	-323.60360	59.27699	-776.18762	-163.04855	42.93248	-844.81688	-111.04593	56.23926	-791.52999	-131.33729	259.40256	-412.40703	-125.77088	396.65585	-398.90772	-197.62115	304.88887	-389.74212	-113.34545	373.77928	-823.93867	-173.74746	268.37462	-844.06500	-282.33990	599.16382	-415.47731	-186.33876	542.40650	-413.57621	-240.26104	445.54372	-439.62545	-342.87705	503.45103	-431.25651	-201.88186	473.07352	-413.30007	-281.94122	600.06944	-825.89518	-167.72219	528.84474	-805.23553	-348.42022	508.85723	-819.79374	-231.90423	436.58487	-784.73788	-283.36087	654.34182	-521.91963	-436.90346	780.45298	-600.62023	-282.05061	647.93731	-733.44918	-436.83518	775.15757	-681.44306	-12.17618	974.10033	-638.40151	32.38172	911.94269	-501.22425	32.95281	902.06214	-771.16427	45.68770	844.12720	-607.63598	40.74284	840.57347	-646.77390	-26.15879	858.44751	-405.55632	-230.82302	905.74812	-315.63488	-184.30227	879.19933	-267.64022	-208.34254	785.45158	-250.94685	-286.98670	669.59528	-231.87412	-299.36260	686.69118	-199.34533	-30.80173	870.79174	-861.91639	-245.10962	912.71668	-929.90208	-201.88519	881.70828	-977.42178	-264.51457	791.22692	-996.71375	-357.68797	702.96728	-997.71444	-370.41601	725.95946	-1031.56805	-395.92374	620.69890	-524.62176	-391.06265	613.46467	-731.94572	-375.09444	637.18043	-549.54724	-374.97379	628.05111	-688.92466	
